<?xml version="1.0" standalone="no"?><!DOCTYPE svg PUBLIC "-//W3C//DTD SVG 1.1//EN" "http://www.w3.org/Graphics/SVG/1.1/DTD/svg11.dtd"><svg t="1585401397036" class="icon" viewBox="0 0 1024 1024" version="1.1" xmlns="http://www.w3.org/2000/svg" p-id="3999" xmlns:xlink="http://www.w3.org/1999/xlink" width="300" height="300"><defs><style type="text/css"></style></defs><path d="M512 85.333333c235.637333 0 426.666667 191.029333 426.666667 426.666667S747.637333 938.666667 512 938.666667 85.333333 747.637333 85.333333 512 276.362667 85.333333 512 85.333333z m214.592 318.677334a32 32 0 0 0-45.248 0.064L544.736 541.066667l-81.792-89.109334a32 32 0 0 0-46.613333-0.576l-119.36 123.733334a32 32 0 1 0 46.058666 44.437333l95.754667-99.264 81.418667 88.704a32 32 0 0 0 46.24 0.96l160.213333-160.693333a32 32 0 0 0-0.064-45.248z" p-id="4000" fill="#A52A2A"></path></svg>