<?xml version="1.0" standalone="no"?><!DOCTYPE svg PUBLIC "-//W3C//DTD SVG 1.1//EN" "http://www.w3.org/Graphics/SVG/1.1/DTD/svg11.dtd"><svg t="1586613547505" class="icon" viewBox="0 0 1024 1024" version="1.1" xmlns="http://www.w3.org/2000/svg" p-id="3223" xmlns:xlink="http://www.w3.org/1999/xlink" width="300" height="300"><defs><style type="text/css"></style></defs><path d="M462 326h72v184h110v72H462V326z m501.712-101.422l-61.622 191.96-209.8-74.216 23.942-67.7 91.924 32.52A358.138 358.138 0 0 0 512 152c-198.504 0-360 161.496-360 360s161.496 360 360 360 360-161.496 360-360h72a432 432 0 0 1-737.47 305.47 432.036 432.036 0 0 1 535.15-671.416 433.508 433.508 0 0 1 130.786 127.872l22.886-71.3z" p-id="3224" fill="#d81e06"></path></svg>