<?xml version="1.0" standalone="no"?><!DOCTYPE svg PUBLIC "-//W3C//DTD SVG 1.1//EN" "http://www.w3.org/Graphics/SVG/1.1/DTD/svg11.dtd"><svg t="1585553707826" class="icon" viewBox="0 0 1083 1024" version="1.1" xmlns="http://www.w3.org/2000/svg" p-id="5225" xmlns:xlink="http://www.w3.org/1999/xlink" width="317.28515625" height="300"><defs><style type="text/css"></style></defs><path d="M29.711329 1023.999991c-7.485233 0-14.924487-3.12651-20.193575-9.2324-9.627811-11.145088-8.395599-27.982264 2.749489-37.610075l538.596502-465.151107L12.267243 46.846107c-11.145088-9.627811-12.377301-26.464987-2.749489-37.610075 9.627811-11.145088 26.464987-12.377301 37.610074-2.74949l561.962566 485.335487c5.866804 5.066785 9.2324 12.432475 9.2324 20.18438s-3.374792 15.117595-9.2324 20.18438L47.137024 1017.517081a26.602921 26.602921 0 0 1-17.425695 6.48291z" p-id="5226" fill="#515151"></path><path d="M387.328887 1023.999991c-7.485233 0-14.924487-3.12651-20.193576-9.2324-9.627811-11.145088-8.395599-27.982264 2.74949-37.610075l538.596502-465.151107L369.884801 46.846107c-11.145088-9.627811-12.377301-26.464987-2.74949-37.610075 9.627811-11.145088 26.464987-12.377301 37.610075-2.74949l561.962566 485.335487c5.866804 5.066785 9.2324 12.432475 9.2324 20.18438s-3.374792 15.117595-9.2324 20.18438l-561.962566 485.335487a26.617634 26.617634 0 0 1-17.416499 6.473715z" p-id="5227" fill="#515151"></path></svg>