<?xml version="1.0" standalone="no"?><!DOCTYPE svg PUBLIC "-//W3C//DTD SVG 1.1//EN" "http://www.w3.org/Graphics/SVG/1.1/DTD/svg11.dtd"><svg t="1585718955659" class="icon" viewBox="0 0 1024 1024" version="1.1" xmlns="http://www.w3.org/2000/svg" p-id="5682" data-spm-anchor-id="a313x.7781069.0.i21" width="300" height="300" xmlns:xlink="http://www.w3.org/1999/xlink"><defs><style type="text/css"></style></defs><path d="M512 1.3C262.9 1.3 61.1 206.6 61.1 459.1c0 94 23.2 172.2 76 254.2 104.4 173.9 307.5 310.5 375.3 310.5 67.9 0 270.5-137.4 375.3-310.5 52-82 76-160.2 76-254.2C962.9 206.6 761 1.3 512 1.3z m0 827.1c-207.4 0-375.7-168.3-375.7-375.7C136.3 245.3 304.6 77 512 77c207.4 0 375.7 168.3 375.7 375.7 0 207.4-168.3 375.7-375.7 375.7z m0 0" fill="#FF8C00" p-id="5683" data-spm-anchor-id="a313x.7781069.0.i6" class="selected"></path><path d="M512.4 452.7m-375.7 0a375.7 375.7 0 1 0 751.4 0 375.7 375.7 0 1 0-751.4 0Z" fill="#FFFFFF" p-id="5684" data-spm-anchor-id="a313x.7781069.0.i24"></path><path d="M560.4 667H467c-87.9 0-157.4 0-157.4-44.7v-9.2c0-85.5 70.6-155 157.4-155h93.4c86.8 0 157.4 69.5 157.4 155v9.2c0 44.7-73 44.7-157.4 44.7zM509 446.4c-68.7 0-124.6-55.1-124.6-122.8 0-67.7 55.9-122.8 124.6-122.8 68.7 0 124.6 55.1 124.6 122.8 0.1 67.7-55.9 122.8-124.6 122.8z m0 0" fill="#FF8C00" p-id="5685" data-spm-anchor-id="a313x.7781069.0.i7" class="selected"></path></svg>