<?xml version="1.0" standalone="no"?><!DOCTYPE svg PUBLIC "-//W3C//DTD SVG 1.1//EN" "http://www.w3.org/Graphics/SVG/1.1/DTD/svg11.dtd"><svg t="1587649197113" class="icon" viewBox="0 0 1024 1024" version="1.1" xmlns="http://www.w3.org/2000/svg" p-id="4563" xmlns:xlink="http://www.w3.org/1999/xlink" width="300" height="300"><defs><style type="text/css"></style></defs><path d="M528.335238 984.015238c-4.144762 0-7.801905-1.950476-10.24-5.363809l-65.828571-98.255239-113.615238 33.158096c-4.388571 1.219048-9.264762 0-12.190477-3.413334a11.776 11.776 0 0 1-2.438095-12.434285l77.775238-213.577143c1.950476-5.12 7.070476-8.289524 12.678095-8.045714 19.260952 1.950476 39.009524 3.657143 52.906667 13.897142 13.653333 9.99619 21.455238 28.038095 29.013333 45.592381 7.558095 17.310476 15.11619 35.108571 26.08762 38.521905 10.24 3.169524 26.575238-6.095238 42.179047-15.36 13.409524-7.801905 27.550476-16.091429 41.691429-18.773333 4.388571-0.975238 8.777143 0.731429 11.702857 3.900952 2.925714 3.413333 3.657143 8.045714 2.194286 12.190476l-80.213334 220.16c-1.462857 4.388571-5.36381 7.314286-9.99619 8.045715-0.731429-0.24381-1.219048-0.24381-1.706667-0.24381z m-70.704762-130.194286c3.900952 0 7.801905 1.950476 10.24 5.36381l57.539048 85.820952 62.415238-171.641904c-3.657143 1.950476-7.314286 4.144762-10.971429 6.095238-20.48 11.946667-41.447619 24.137143-61.927619 17.554285-21.455238-7.070476-31.451429-29.988571-40.96-52.175238-6.339048-14.384762-12.678095-29.500952-20.967619-35.352381-6.826667-4.87619-18.773333-7.070476-31.451428-8.289524l-66.316191 182.125715 99.230476-28.769524a6.095238 6.095238 0 0 1 3.169524-0.731429z" p-id="4564"></path><path d="M704.365714 984.015238h-1.462857a11.873524 11.873524 0 0 1-9.99619-8.045714L612.693333 755.809524a12.336762 12.336762 0 0 1 2.194286-12.190476c2.925714-3.413333 7.314286-4.87619 11.702857-3.900953 14.140952 2.925714 28.038095 10.971429 41.691429 18.773334 15.847619 9.264762 31.939048 18.529524 42.179047 15.36 10.971429-3.657143 18.773333-21.455238 26.087619-38.521905 7.558095-17.554286 15.36-35.59619 29.013334-45.348572 13.897143-9.99619 33.401905-11.946667 52.419047-13.897142 5.36381-0.487619 10.971429 2.681905 12.921905 8.045714l77.775238 213.577143c1.462857 4.388571 0.487619 9.264762-2.438095 12.434285s-7.801905 4.632381-12.190476 3.413334L780.190476 880.152381l-65.828571 98.255238a12.190476 12.190476 0 0 1-9.996191 5.607619z m-59.245714-210.651428l62.415238 171.641904 57.539048-85.820952c2.925714-4.388571 8.289524-6.339048 13.653333-4.876191L877.714286 883.078095l-66.316191-182.125714c-12.921905 1.462857-24.624762 3.413333-31.451428 8.289524-8.289524 6.095238-14.628571 20.967619-20.967619 35.352381-9.508571 22.186667-19.504762 45.104762-40.96 52.175238-20.48 6.582857-41.691429-5.607619-61.927619-17.310476-3.900952-1.950476-7.314286-4.144762-10.971429-6.095238z m127.512381-73.874286z" p-id="4565"></path><path d="M526.872381 798.96381c-4.144762 0-8.045714-0.487619-11.946667-1.950477-21.455238-7.070476-31.451429-29.988571-40.96-52.175238-6.339048-14.384762-12.678095-29.500952-20.967619-35.352381-8.533333-6.095238-24.868571-7.801905-40.71619-9.264762-23.893333-2.194286-48.518095-4.632381-61.68381-22.674285-3.900952-5.36381-2.681905-13.165714 2.681905-17.066667s13.165714-2.681905 17.066667 2.681905c6.582857 9.020952 25.84381 10.971429 44.373333 12.678095 19.017143 1.950476 38.765714 3.657143 52.662857 13.897143 13.653333 9.99619 21.455238 28.038095 29.013333 45.592381 7.558095 17.310476 15.11619 35.108571 26.08762 38.521905 10.24 3.169524 26.331429-6.339048 42.179047-15.60381 16.822857-9.99619 34.133333-20.23619 51.931429-20.23619s35.108571 10.24 51.931428 20.23619c15.60381 9.264762 31.939048 18.773333 42.179048 15.60381 10.971429-3.657143 18.773333-21.455238 26.087619-38.521905 7.558095-17.554286 15.36-35.59619 29.013333-45.348572 13.897143-9.99619 33.645714-11.946667 52.662857-13.897142 18.529524-1.706667 37.546667-3.657143 44.373334-12.678096 6.582857-9.020952 2.438095-27.550476-1.706667-45.592381-4.144762-18.773333-8.533333-38.278095-3.169524-54.857143 5.12-15.847619 19.748571-28.769524 33.889524-40.96 14.140952-12.434286 29.013333-25.6 29.013333-37.546666s-14.628571-24.868571-29.013333-37.546667c-14.140952-12.434286-28.769524-25.35619-33.889524-40.96-5.36381-16.579048-0.975238-36.08381 3.169524-54.857143 3.900952-18.041905 8.045714-36.571429 1.462857-45.592381-6.582857-9.020952-25.84381-10.971429-44.373333-12.678095-19.017143-1.950476-38.765714-3.657143-52.662857-13.897143-13.653333-9.99619-21.455238-28.038095-29.013334-45.592381-7.558095-17.310476-15.11619-35.108571-26.087619-38.521904-10.24-3.169524-26.331429 6.339048-42.179047 15.603809-16.822857 9.99619-34.133333 20.23619-51.931429 20.236191s-35.108571-10.24-51.931428-20.236191c-15.60381-9.264762-31.939048-18.773333-42.179048-15.603809-4.632381 1.462857-9.020952 5.607619-13.409524 12.434285a12.190476 12.190476 0 0 1-16.822857 3.657143 12.190476 12.190476 0 0 1-3.657143-16.822857c7.558095-11.946667 16.335238-19.260952 26.331429-22.674286 20.72381-6.582857 41.691429 5.607619 61.927619 17.554286 14.140952 8.289524 28.525714 16.822857 39.497143 16.822857s25.6-8.533333 39.497143-16.822857c20.23619-11.946667 41.447619-24.380952 61.927619-17.554286 21.455238 7.070476 31.451429 29.988571 40.96 52.175238 6.339048 14.384762 12.678095 29.500952 20.967619 35.352381 8.533333 6.095238 24.868571 7.801905 40.71619 9.264762 23.893333 2.194286 48.518095 4.632381 61.68381 22.674286 12.921905 17.798095 7.558095 41.935238 2.438095 65.097143-3.413333 15.60381-7.070476 31.939048-3.657143 41.935238 3.169524 9.508571 15.11619 19.992381 26.819048 30.232381 17.554286 15.36 37.302857 32.670476 37.302857 55.832381s-19.748571 40.472381-37.302857 55.832381c-11.702857 10.24-23.649524 20.967619-26.819048 30.232381-3.413333 10.24 0.24381 26.331429 3.657143 41.935238 5.12 23.405714 10.48381 47.299048-2.438095 65.097143-13.165714 18.041905-37.790476 20.23619-61.68381 22.674285-15.847619 1.462857-32.182857 3.169524-40.71619 9.264762-8.289524 6.095238-14.628571 20.967619-20.967619 35.352381-9.508571 22.186667-19.504762 45.104762-40.96 52.175238-20.48 6.582857-41.691429-5.607619-61.927619-17.554285-14.140952-8.289524-28.525714-16.822857-39.497143-16.822858s-25.6 8.533333-39.497143 16.822858c-16.335238 9.99619-33.158095 19.992381-49.737143 19.992381z" p-id="4566"></path><path d="M616.350476 678.521905c-22.918095 0-45.592381-3.900952-67.047619-11.946667a12.312381 12.312381 0 0 1-7.314286-15.603809c2.438095-6.339048 9.264762-9.508571 15.60381-7.314286 18.773333 6.826667 38.521905 10.48381 58.758095 10.483809 93.622857 0 169.935238-76.312381 169.935238-169.935238 0-68.510476-40.71619-129.950476-103.862857-156.525714a12.604952 12.604952 0 0 1-6.582857-16.091429c2.681905-6.095238 9.752381-9.020952 16.091429-6.582857a193.950476 193.950476 0 0 1 118.735238 179.2c0 107.27619-87.04 194.31619-194.316191 194.316191z" p-id="4567"></path><path d="M585.630476 619.52H324.998095a10.48381 10.48381 0 0 1-6.095238-1.706667L238.201905 570.514286a12.288 12.288 0 0 1-6.095238-10.48381v-202.361905c0-3.169524 1.219048-6.095238 3.169523-8.289523l0.975239-0.975238c71.92381-78.019048 106.300952-144.822857 102.4-198.460953-4.388571-58.758095 19.748571-85.089524 43.885714-89.965714 27.794286-5.607619 56.56381 15.36 68.510476 49.980952 18.041905 52.662857 7.558095 147.017143 2.681905 182.857143h148.723809c22.186667 0 49.493333 16.579048 55.100953 41.20381 2.438095 11.459048 1.706667 31.695238-25.112381 50.712381 17.554286 13.165714 22.918095 31.207619 21.455238 45.83619-1.706667 16.822857-11.702857 30.96381-26.819048 39.740952 9.508571 10.24 13.897143 23.649524 11.946667 37.546667-1.950476 12.921905-9.020952 23.893333-19.748572 31.451429 10.48381 10.727619 13.653333 24.624762 12.434286 36.571428-2.925714 24.868571-22.674286 43.641905-46.08 43.641905z m-257.219047-24.380952h257.462857c11.946667 0 20.48-11.215238 21.699047-21.942858 0.731429-7.070476-0.731429-19.748571-20.23619-24.137142a11.946667 11.946667 0 0 1-9.508572-12.678096c0.487619-6.095238 5.12-10.727619 10.971429-11.459047 17.554286-1.706667 25.112381-12.190476 26.331429-20.72381 1.462857-10.727619-5.607619-20.72381-19.017143-26.087619a11.995429 11.995429 0 0 1-7.558096-12.678095c0.731429-5.36381 4.87619-9.752381 10.48381-10.727619 19.748571-2.925714 29.744762-15.36 30.72-26.575238 1.462857-13.409524-8.533333-25.112381-26.331429-31.695238a12.239238 12.239238 0 1 1-0.975238-22.674286c22.674286-10.48381 34.133333-23.161905 31.451429-34.620952-2.438095-11.215238-18.041905-22.186667-31.207619-22.186667h-162.864762c-3.657143 0-7.070476-1.462857-9.264762-4.388571a11.385905 11.385905 0 0 1-2.681905-9.996191c0.24381-1.219048 20.72381-126.537143 0.487619-185.295238-9.020952-26.087619-27.062857-36.815238-40.472381-34.133333-13.165714 2.681905-27.550476 21.211429-24.380952 64.365714 4.388571 60.220952-31.451429 132.388571-106.544762 214.308571v190.659048l71.436191 42.666667zM181.394286 440.32c-6.826667 0-12.190476-5.36381-12.190476-12.190476v-50.468572c0-6.826667 5.36381-12.190476 12.190476-12.190476s12.190476 5.36381 12.190476 12.190476v50.468572c0 6.582857-5.607619 12.190476-12.190476 12.190476z" p-id="4568"></path><path d="M244.297143 619.52H118.247619c-6.826667 0-12.190476-5.36381-12.190476-12.190476V304.518095c0-6.826667 5.36381-12.190476 12.190476-12.190476h126.049524c6.826667 0 12.190476 5.36381 12.190476 12.190476V607.085714c0 6.826667-5.36381 12.434286-12.190476 12.434286z m-113.859048-24.380952h101.668572V316.708571H130.438095v278.430477z" p-id="4569"></path></svg>